<?xml version="1.0" encoding="UTF-8" standalone="no"?>
<!DOCTYPE svg PUBLIC "-//W3C//DTD SVG 1.1//EN" "http://www.w3.org/Graphics/SVG/1.1/DTD/svg11.dtd">
<!-- Generated by graphviz version 2.40.1 (20161225.0304)
 -->
<!-- Title: %0 Pages: 1 -->
<svg width="1855pt" height="1217pt" viewBox="0.00 0.00 1855.00 1217.23" xmlns="http://www.w3.org/2000/svg" xmlns:xlink="http://www.w3.org/1999/xlink">
<g id="graph0" class="graph" transform="scale(1 1) rotate(0) translate(4 1213.2348)">
<title>%0</title>
<polygon fill="#ffffff" stroke="transparent" points="-4,4 -4,-1213.2348 1851,-1213.2348 1851,4 -4,4"/>
<!-- bd -->
<g id="node1" class="node">
<title>bd</title>
<ellipse fill="none" stroke="#000000" cx="317" cy="-1191.2348" rx="27" ry="18"/>
<text text-anchor="middle" x="317" y="-1187.0348" font-family="Times,serif" font-size="14.00" fill="#000000">bd</text>
</g>
<!-- lg -->
<g id="node2" class="node">
<title>lg</title>
<ellipse fill="none" stroke="#000000" cx="317" cy="-1119.2348" rx="27" ry="18"/>
<text text-anchor="middle" x="317" y="-1115.0348" font-family="Times,serif" font-size="14.00" fill="#000000">lg</text>
</g>
<!-- bd&#45;&gt;lg -->
<g id="edge1" class="edge">
<title>bd-&gt;lg</title>
<path fill="none" stroke="#000000" d="M317,-1173.0662C317,-1165.3658 317,-1156.2092 317,-1147.6515"/>
<polygon fill="#000000" stroke="#000000" points="320.5001,-1147.6481 317,-1137.6481 313.5001,-1147.6481 320.5001,-1147.6481"/>
</g>
<!-- cm -->
<g id="node3" class="node">
<title>cm</title>
<polygon fill="none" stroke="#000000" points="289,-1023.6972 235,-1023.6972 235,-987.6972 289,-987.6972 289,-1023.6972"/>
<text text-anchor="middle" x="262" y="-1001.4972" font-family="Times,serif" font-size="14.00" fill="#000000">cm</text>
</g>
<!-- bd&#45;&gt;cm -->
<g id="edge2" class="edge">
<title>bd-&gt;cm</title>
<path fill="none" stroke="#000000" d="M303.5873,-1175.2761C295.7241,-1165.047 286.319,-1151.1241 281,-1137.2348 267.9603,-1103.1849 263.7793,-1061.0513 262.4889,-1033.788"/>
<polygon fill="#000000" stroke="#000000" points="265.9856,-1033.6328 262.1139,-1023.7707 258.9905,-1033.8947 265.9856,-1033.6328"/>
</g>
<!-- lg&#45;&gt;cm -->
<g id="edge25" class="edge">
<title>lg-&gt;cm</title>
<path fill="none" stroke="#000000" d="M308.6467,-1101.9909C299.7864,-1083.7003 285.6617,-1054.5425 275.2741,-1033.0991"/>
<polygon fill="#000000" stroke="#000000" points="278.3062,-1031.3301 270.7967,-1023.8563 272.0065,-1034.3819 278.3062,-1031.3301"/>
</g>
<!-- ft -->
<g id="node7" class="node">
<title>ft</title>
<ellipse fill="none" stroke="#000000" cx="355" cy="-892.1596" rx="27" ry="18"/>
<text text-anchor="middle" x="355" y="-887.9596" font-family="Times,serif" font-size="14.00" fill="#000000">ft</text>
</g>
<!-- cm&#45;&gt;ft -->
<g id="edge18" class="edge">
<title>cm-&gt;ft</title>
<path fill="none" stroke="#000000" d="M271.8272,-987.4554C286.0775,-967.5565 312.0486,-935.6997 331.3288,-914.3624"/>
<polygon fill="#000000" stroke="#000000" points="334.1457,-916.4707 338.3522,-906.7467 328.9998,-911.7251 334.1457,-916.4707"/>
</g>
<!-- jp -->
<g id="node22" class="node">
<title>jp</title>
<ellipse fill="none" stroke="#000000" cx="112" cy="-604.1596" rx="27" ry="18"/>
<text text-anchor="middle" x="112" y="-599.9596" font-family="Times,serif" font-size="14.00" fill="#000000">jp</text>
</g>
<!-- cm&#45;&gt;jp -->
<g id="edge19" class="edge">
<title>cm-&gt;jp</title>
<path fill="none" stroke="#000000" d="M234.9804,-997.593C175.4032,-977.8693 38,-921.4055 38,-820.1596 38,-820.1596 38,-820.1596 38,-748.1596 38,-701.2897 69.3967,-654.3826 91.2885,-627.3727"/>
<polygon fill="#000000" stroke="#000000" points="94.0122,-629.5715 97.7321,-619.6512 88.6377,-625.0865 94.0122,-629.5715"/>
</g>
<!-- sk -->
<g id="node23" class="node">
<title>sk</title>
<ellipse fill="none" stroke="#000000" cx="131" cy="-748.1596" rx="27" ry="18"/>
<text text-anchor="middle" x="131" y="-743.9596" font-family="Times,serif" font-size="14.00" fill="#000000">sk</text>
</g>
<!-- cm&#45;&gt;sk -->
<g id="edge20" class="edge">
<title>cm-&gt;sk</title>
<path fill="none" stroke="#000000" d="M241.4673,-987.5869C211.0523,-959.2631 155.2298,-901.1643 133,-838.1596 126.0014,-818.3238 125.8087,-794.4694 127.2002,-776.3042"/>
<polygon fill="#000000" stroke="#000000" points="130.6849,-776.63 128.163,-766.3397 123.7174,-775.9566 130.6849,-776.63"/>
</g>
<!-- dt -->
<g id="node24" class="node">
<title>dt</title>
<polygon fill="none" stroke="#000000" points="902,-838.1596 848,-838.1596 848,-802.1596 902,-802.1596 902,-838.1596"/>
<text text-anchor="middle" x="875" y="-815.9596" font-family="Times,serif" font-size="14.00" fill="#000000">dt</text>
</g>
<!-- cm&#45;&gt;dt -->
<g id="edge21" class="edge">
<title>cm-&gt;dt</title>
<path fill="none" stroke="#000000" d="M289.1076,-1004.4383C364.9973,-1000.0775 584.8241,-981.6903 750,-910.1596 787.0385,-894.1197 823.8547,-865.7076 847.8351,-845.0884"/>
<polygon fill="#000000" stroke="#000000" points="850.2331,-847.641 855.4573,-838.4237 845.6254,-842.3713 850.2331,-847.641"/>
</g>
<!-- gb -->
<g id="node25" class="node">
<title>gb</title>
<ellipse fill="none" stroke="#000000" cx="226" cy="-378" rx="27" ry="18"/>
<text text-anchor="middle" x="226" y="-373.8" font-family="Times,serif" font-size="14.00" fill="#000000">gb</text>
</g>
<!-- cm&#45;&gt;gb -->
<g id="edge22" class="edge">
<title>cm-&gt;gb</title>
<path fill="none" stroke="#000000" d="M234.9482,-1000.1445C168.0077,-984.6611 0,-934.4194 0,-820.1596 0,-820.1596 0,-820.1596 0,-532.1596 0,-441.504 125.6383,-400.3336 189.5627,-385.2534"/>
<polygon fill="#000000" stroke="#000000" points="190.6524,-388.5953 199.6326,-382.9734 189.1066,-381.7681 190.6524,-388.5953"/>
</g>
<!-- broadcaster -->
<g id="node4" class="node">
<title>broadcaster</title>
<ellipse fill="none" stroke="#000000" cx="937" cy="-1005.6972" rx="55.5728" ry="55.5728"/>
<ellipse fill="none" stroke="#000000" cx="937" cy="-1005.6972" rx="59.5753" ry="59.5753"/>
<text text-anchor="middle" x="937" y="-1001.4972" font-family="Times,serif" font-size="14.00" fill="#000000">broadcaster</text>
</g>
<!-- ct -->
<g id="node5" class="node">
<title>ct</title>
<ellipse fill="none" stroke="#000000" cx="714" cy="-892.1596" rx="27" ry="18"/>
<text text-anchor="middle" x="714" y="-887.9596" font-family="Times,serif" font-size="14.00" fill="#000000">ct</text>
</g>
<!-- broadcaster&#45;&gt;ct -->
<g id="edge3" class="edge">
<title>broadcaster-&gt;ct</title>
<path fill="none" stroke="#000000" d="M883.8693,-978.6463C840.3503,-956.4892 780.3101,-925.9205 744.4946,-907.6855"/>
<polygon fill="#000000" stroke="#000000" points="746.0019,-904.5254 735.5024,-903.1072 742.8258,-910.7635 746.0019,-904.5254"/>
</g>
<!-- hr -->
<g id="node6" class="node">
<title>hr</title>
<ellipse fill="none" stroke="#000000" cx="1179" cy="-892.1596" rx="27" ry="18"/>
<text text-anchor="middle" x="1179" y="-887.9596" font-family="Times,serif" font-size="14.00" fill="#000000">hr</text>
</g>
<!-- broadcaster&#45;&gt;hr -->
<g id="edge4" class="edge">
<title>broadcaster-&gt;hr</title>
<path fill="none" stroke="#000000" d="M991.0083,-980.3584C1039.0372,-957.825 1107.6291,-925.6442 1147.31,-907.0273"/>
<polygon fill="#000000" stroke="#000000" points="1149.1789,-910.0167 1156.7454,-902.6006 1146.2056,-903.6795 1149.1789,-910.0167"/>
</g>
<!-- broadcaster&#45;&gt;ft -->
<g id="edge5" class="edge">
<title>broadcaster-&gt;ft</title>
<path fill="none" stroke="#000000" d="M878.5309,-994.2909C758.7992,-970.9335 488.7764,-918.2569 391.1134,-899.2046"/>
<polygon fill="#000000" stroke="#000000" points="391.625,-895.7385 381.1398,-897.259 390.2846,-902.609 391.625,-895.7385"/>
</g>
<!-- qm -->
<g id="node8" class="node">
<title>qm</title>
<ellipse fill="none" stroke="#000000" cx="1596" cy="-892.1596" rx="27" ry="18"/>
<text text-anchor="middle" x="1596" y="-887.9596" font-family="Times,serif" font-size="14.00" fill="#000000">qm</text>
</g>
<!-- broadcaster&#45;&gt;qm -->
<g id="edge6" class="edge">
<title>broadcaster-&gt;qm</title>
<path fill="none" stroke="#000000" d="M995.7715,-995.5716C1129.034,-972.6121 1450.9907,-917.1429 1559.5558,-898.4385"/>
<polygon fill="#000000" stroke="#000000" points="1560.4161,-901.8419 1569.6766,-896.6948 1559.2275,-894.9435 1560.4161,-901.8419"/>
</g>
<!-- mj -->
<g id="node36" class="node">
<title>mj</title>
<ellipse fill="none" stroke="#000000" cx="650" cy="-820.1596" rx="27" ry="18"/>
<text text-anchor="middle" x="650" y="-815.9596" font-family="Times,serif" font-size="14.00" fill="#000000">mj</text>
</g>
<!-- ct&#45;&gt;mj -->
<g id="edge97" class="edge">
<title>ct-&gt;mj</title>
<path fill="none" stroke="#000000" d="M700.113,-876.5366C691.4747,-866.8186 680.2107,-854.1466 670.5503,-843.2787"/>
<polygon fill="#000000" stroke="#000000" points="673.1196,-840.9008 663.8599,-835.752 667.8877,-845.5514 673.1196,-840.9008"/>
</g>
<!-- mh -->
<g id="node38" class="node">
<title>mh</title>
<polygon fill="none" stroke="#000000" points="718,-694.1596 664,-694.1596 664,-658.1596 718,-658.1596 718,-694.1596"/>
<text text-anchor="middle" x="691" y="-671.9596" font-family="Times,serif" font-size="14.00" fill="#000000">mh</text>
</g>
<!-- ct&#45;&gt;mh -->
<g id="edge98" class="edge">
<title>ct-&gt;mh</title>
<path fill="none" stroke="#000000" d="M708.206,-874.4834C700.7354,-837.0788 691.1527,-749.651 689.2759,-704.406"/>
<polygon fill="#000000" stroke="#000000" points="692.7737,-704.2767 688.9782,-694.3851 685.7768,-704.4846 692.7737,-704.2767"/>
</g>
<!-- zz -->
<g id="node11" class="node">
<title>zz</title>
<polygon fill="none" stroke="#000000" points="1206,-766.1596 1152,-766.1596 1152,-730.1596 1206,-730.1596 1206,-766.1596"/>
<text text-anchor="middle" x="1179" y="-743.9596" font-family="Times,serif" font-size="14.00" fill="#000000">zz</text>
</g>
<!-- hr&#45;&gt;zz -->
<g id="edge84" class="edge">
<title>hr-&gt;zz</title>
<path fill="none" stroke="#000000" d="M1174.3562,-874.213C1171.8728,-849.7447 1171.5855,-805.6492 1173.4943,-776.6395"/>
<polygon fill="#000000" stroke="#000000" points="1177.0103,-776.5833 1174.3333,-766.3323 1170.0334,-776.0153 1177.0103,-776.5833"/>
</g>
<!-- zq -->
<g id="node56" class="node">
<title>zq</title>
<ellipse fill="none" stroke="#000000" cx="1243" cy="-820.1596" rx="27" ry="18"/>
<text text-anchor="middle" x="1243" y="-815.9596" font-family="Times,serif" font-size="14.00" fill="#000000">zq</text>
</g>
<!-- hr&#45;&gt;zq -->
<g id="edge85" class="edge">
<title>hr-&gt;zq</title>
<path fill="none" stroke="#000000" d="M1192.887,-876.5366C1201.5253,-866.8186 1212.7893,-854.1466 1222.4497,-843.2787"/>
<polygon fill="#000000" stroke="#000000" points="1225.1123,-845.5514 1229.1401,-835.752 1219.8804,-840.9008 1225.1123,-845.5514"/>
</g>
<!-- ft&#45;&gt;cm -->
<g id="edge100" class="edge">
<title>ft-&gt;cm</title>
<path fill="none" stroke="#000000" d="M345.9995,-909.2418C332.6978,-927.9846 308.1414,-958.2774 288.8821,-979.9134"/>
<polygon fill="#000000" stroke="#000000" points="286.1717,-977.6923 282.0569,-987.4554 291.362,-982.3892 286.1717,-977.6923"/>
</g>
<!-- qn -->
<g id="node55" class="node">
<title>qn</title>
<ellipse fill="none" stroke="#000000" cx="169" cy="-820.1596" rx="27" ry="18"/>
<text text-anchor="middle" x="169" y="-815.9596" font-family="Times,serif" font-size="14.00" fill="#000000">qn</text>
</g>
<!-- ft&#45;&gt;qn -->
<g id="edge101" class="edge">
<title>ft-&gt;qn</title>
<path fill="none" stroke="#000000" d="M331.443,-883.0407C298.6,-870.3273 238.9118,-847.2222 201.7526,-832.838"/>
<polygon fill="#000000" stroke="#000000" points="202.9549,-829.5504 192.3658,-829.2044 200.4279,-836.0784 202.9549,-829.5504"/>
</g>
<!-- kd -->
<g id="node21" class="node">
<title>kd</title>
<polygon fill="none" stroke="#000000" points="1655,-694.1596 1601,-694.1596 1601,-658.1596 1655,-658.1596 1655,-694.1596"/>
<text text-anchor="middle" x="1628" y="-671.9596" font-family="Times,serif" font-size="14.00" fill="#000000">kd</text>
</g>
<!-- qm&#45;&gt;kd -->
<g id="edge51" class="edge">
<title>qm-&gt;kd</title>
<path fill="none" stroke="#000000" d="M1594.7274,-874.115C1596.8454,-836.4739 1609.4939,-749.3463 1619.1095,-704.2841"/>
<polygon fill="#000000" stroke="#000000" points="1622.5744,-704.8292 1621.3567,-694.3046 1615.7453,-703.2914 1622.5744,-704.8292"/>
</g>
<!-- kb -->
<g id="node45" class="node">
<title>kb</title>
<ellipse fill="none" stroke="#000000" cx="1564" cy="-820.1596" rx="27" ry="18"/>
<text text-anchor="middle" x="1564" y="-815.9596" font-family="Times,serif" font-size="14.00" fill="#000000">kb</text>
</g>
<!-- qm&#45;&gt;kb -->
<g id="edge52" class="edge">
<title>qm-&gt;kb</title>
<path fill="none" stroke="#000000" d="M1588.2537,-874.7304C1584.5196,-866.3287 1579.9596,-856.0686 1575.8055,-846.7218"/>
<polygon fill="#000000" stroke="#000000" points="1578.9348,-845.1449 1571.675,-837.4282 1572.5381,-847.9879 1578.9348,-845.1449"/>
</g>
<!-- bh -->
<g id="node9" class="node">
<title>bh</title>
<ellipse fill="none" stroke="#000000" cx="1272" cy="-604.1596" rx="27" ry="18"/>
<text text-anchor="middle" x="1272" y="-599.9596" font-family="Times,serif" font-size="14.00" fill="#000000">bh</text>
</g>
<!-- lj -->
<g id="node10" class="node">
<title>lj</title>
<ellipse fill="none" stroke="#000000" cx="1234" cy="-532.1596" rx="27" ry="18"/>
<text text-anchor="middle" x="1234" y="-527.9596" font-family="Times,serif" font-size="14.00" fill="#000000">lj</text>
</g>
<!-- bh&#45;&gt;lj -->
<g id="edge7" class="edge">
<title>bh-&gt;lj</title>
<path fill="none" stroke="#000000" d="M1262.9945,-587.0966C1258.5172,-578.6133 1253.0048,-568.1687 1247.993,-558.6725"/>
<polygon fill="#000000" stroke="#000000" points="1250.9678,-556.8104 1243.2048,-549.6002 1244.7771,-560.0778 1250.9678,-556.8104"/>
</g>
<!-- lj&#45;&gt;zz -->
<g id="edge31" class="edge">
<title>lj-&gt;zz</title>
<path fill="none" stroke="#000000" d="M1229.4836,-550.1476C1221.9668,-580.0536 1206.391,-641.8856 1193,-694.1596 1190.8707,-702.4714 1188.5385,-711.4976 1186.3988,-719.7482"/>
<polygon fill="#000000" stroke="#000000" points="1182.9477,-719.1133 1183.8213,-729.672 1189.7229,-720.873 1182.9477,-719.1133"/>
</g>
<!-- cx -->
<g id="node32" class="node">
<title>cx</title>
<ellipse fill="none" stroke="#000000" cx="1196" cy="-455.0798" rx="27" ry="18"/>
<text text-anchor="middle" x="1196" y="-450.8798" font-family="Times,serif" font-size="14.00" fill="#000000">cx</text>
</g>
<!-- lj&#45;&gt;cx -->
<g id="edge32" class="edge">
<title>lj-&gt;cx</title>
<path fill="none" stroke="#000000" d="M1225.5666,-515.0531C1220.7299,-505.2422 1214.5536,-492.7143 1209.0982,-481.6483"/>
<polygon fill="#000000" stroke="#000000" points="1212.1024,-479.8266 1204.5413,-472.405 1205.8239,-482.9219 1212.1024,-479.8266"/>
</g>
<!-- zz&#45;&gt;hr -->
<g id="edge8" class="edge">
<title>zz-&gt;hr</title>
<path fill="none" stroke="#000000" d="M1183.6667,-766.3323C1186.1365,-790.9209 1186.4103,-835.03 1184.4881,-863.9467"/>
<polygon fill="#000000" stroke="#000000" points="1180.9753,-863.9598 1183.6438,-874.213 1187.9517,-864.5335 1180.9753,-863.9598"/>
</g>
<!-- zz&#45;&gt;bh -->
<g id="edge9" class="edge">
<title>zz-&gt;bh</title>
<path fill="none" stroke="#000000" d="M1199.4898,-730.0563C1209.8456,-720.171 1222.0738,-707.2914 1231,-694.1596 1244.2749,-674.6301 1255.1198,-650.1087 1262.3142,-631.5956"/>
<polygon fill="#000000" stroke="#000000" points="1265.6794,-632.5905 1265.9278,-621.9986 1259.1284,-630.1238 1265.6794,-632.5905"/>
</g>
<!-- th -->
<g id="node12" class="node">
<title>th</title>
<ellipse fill="none" stroke="#000000" cx="1370" cy="-676.1596" rx="27" ry="18"/>
<text text-anchor="middle" x="1370" y="-671.9596" font-family="Times,serif" font-size="14.00" fill="#000000">th</text>
</g>
<!-- zz&#45;&gt;th -->
<g id="edge10" class="edge">
<title>zz-&gt;th</title>
<path fill="none" stroke="#000000" d="M1206.0328,-739.0494C1236.2277,-728.73 1286.4545,-711.1341 1329,-694.1596 1332.0326,-692.9496 1335.1736,-691.6522 1338.306,-690.3286"/>
<polygon fill="#000000" stroke="#000000" points="1339.7616,-693.5126 1347.5597,-686.3404 1336.991,-687.0842 1339.7616,-693.5126"/>
</g>
<!-- jk -->
<g id="node13" class="node">
<title>jk</title>
<ellipse fill="none" stroke="#000000" cx="1158" cy="-378" rx="27" ry="18"/>
<text text-anchor="middle" x="1158" y="-373.8" font-family="Times,serif" font-size="14.00" fill="#000000">jk</text>
</g>
<!-- zz&#45;&gt;jk -->
<g id="edge11" class="edge">
<title>zz-&gt;jk</title>
<path fill="none" stroke="#000000" d="M1170.9412,-729.9264C1159.7866,-702.9844 1141,-650.7 1141,-604.1596 1141,-604.1596 1141,-604.1596 1141,-532.1596 1141,-487.841 1148.0274,-436.7851 1153.0458,-405.9756"/>
<polygon fill="#000000" stroke="#000000" points="1156.5221,-406.4073 1154.7222,-395.9665 1149.6183,-405.2509 1156.5221,-406.4073"/>
</g>
<!-- js -->
<g id="node14" class="node">
<title>js</title>
<polygon fill="none" stroke="#000000" points="999,-694.1596 945,-694.1596 945,-658.1596 999,-658.1596 999,-694.1596"/>
<text text-anchor="middle" x="972" y="-671.9596" font-family="Times,serif" font-size="14.00" fill="#000000">js</text>
</g>
<!-- zz&#45;&gt;js -->
<g id="edge12" class="edge">
<title>zz-&gt;js</title>
<path fill="none" stroke="#000000" d="M1151.9765,-740.2702C1118.8862,-730.4037 1061.2844,-712.5601 1013,-694.1596 1011.5926,-693.6232 1010.1633,-693.0649 1008.7236,-692.4911"/>
<polygon fill="#000000" stroke="#000000" points="1009.7694,-689.1361 999.191,-688.5466 1007.0929,-695.6042 1009.7694,-689.1361"/>
</g>
<!-- th&#45;&gt;bh -->
<g id="edge33" class="edge">
<title>th-&gt;bh</title>
<path fill="none" stroke="#000000" d="M1351.5669,-662.6169C1336.6469,-651.6552 1315.4314,-636.0683 1298.6592,-623.7459"/>
<polygon fill="#000000" stroke="#000000" points="1300.4815,-620.7417 1290.3504,-617.6415 1296.337,-626.3829 1300.4815,-620.7417"/>
</g>
<!-- fs -->
<g id="node29" class="node">
<title>fs</title>
<ellipse fill="none" stroke="#000000" cx="1120" cy="-306" rx="27" ry="18"/>
<text text-anchor="middle" x="1120" y="-301.8" font-family="Times,serif" font-size="14.00" fill="#000000">fs</text>
</g>
<!-- jk&#45;&gt;fs -->
<g id="edge28" class="edge">
<title>jk-&gt;fs</title>
<path fill="none" stroke="#000000" d="M1148.9945,-360.937C1144.5172,-352.4537 1139.0048,-342.0092 1133.993,-332.513"/>
<polygon fill="#000000" stroke="#000000" points="1136.9678,-330.6509 1129.2048,-323.4407 1130.7771,-333.9182 1136.9678,-330.6509"/>
</g>
<!-- cl -->
<g id="node15" class="node">
<title>cl</title>
<polygon fill="none" stroke="#000000" points="980,-550.1596 926,-550.1596 926,-514.1596 980,-514.1596 980,-550.1596"/>
<text text-anchor="middle" x="953" y="-527.9596" font-family="Times,serif" font-size="14.00" fill="#000000">cl</text>
</g>
<!-- js&#45;&gt;cl -->
<g id="edge13" class="edge">
<title>js-&gt;cl</title>
<path fill="none" stroke="#000000" d="M969.5936,-657.9219C966.3529,-633.3606 960.5535,-589.407 956.7412,-560.5136"/>
<polygon fill="#000000" stroke="#000000" points="960.1649,-559.7054 955.3868,-550.2492 953.2251,-560.6211 960.1649,-559.7054"/>
</g>
<!-- rx -->
<g id="node16" class="node">
<title>rx</title>
<ellipse fill="none" stroke="#000000" cx="953" cy="-455.0798" rx="19.146" ry="19.146"/>
<ellipse fill="none" stroke="#000000" cx="953" cy="-455.0798" rx="23.1598" ry="23.1598"/>
<text text-anchor="middle" x="953" y="-450.8798" font-family="Times,serif" font-size="14.00" fill="#000000">rx</text>
</g>
<!-- cl&#45;&gt;rx -->
<g id="edge14" class="edge">
<title>cl-&gt;rx</title>
<path fill="none" stroke="#000000" d="M953,-513.8927C953,-506.2133 953,-497.0325 953,-488.2338"/>
<polygon fill="#000000" stroke="#000000" points="956.5001,-488.1932 953,-478.1932 949.5001,-488.1932 956.5001,-488.1932"/>
</g>
<!-- rn -->
<g id="node17" class="node">
<title>rn</title>
<ellipse fill="none" stroke="#000000" cx="1492" cy="-604.1596" rx="27" ry="18"/>
<text text-anchor="middle" x="1492" y="-599.9596" font-family="Times,serif" font-size="14.00" fill="#000000">rn</text>
</g>
<!-- ml -->
<g id="node18" class="node">
<title>ml</title>
<ellipse fill="none" stroke="#000000" cx="1640" cy="-532.1596" rx="27" ry="18"/>
<text text-anchor="middle" x="1640" y="-527.9596" font-family="Times,serif" font-size="14.00" fill="#000000">ml</text>
</g>
<!-- rn&#45;&gt;ml -->
<g id="edge15" class="edge">
<title>rn-&gt;ml</title>
<path fill="none" stroke="#000000" d="M1513.8379,-593.5357C1538.9778,-581.3055 1580.4601,-561.1249 1608.9508,-547.2646"/>
<polygon fill="#000000" stroke="#000000" points="1610.6113,-550.349 1618.0725,-542.827 1607.549,-544.0544 1610.6113,-550.349"/>
</g>
<!-- gk -->
<g id="node26" class="node">
<title>gk</title>
<ellipse fill="none" stroke="#000000" cx="1678" cy="-455.0798" rx="27" ry="18"/>
<text text-anchor="middle" x="1678" y="-450.8798" font-family="Times,serif" font-size="14.00" fill="#000000">gk</text>
</g>
<!-- ml&#45;&gt;gk -->
<g id="edge77" class="edge">
<title>ml-&gt;gk</title>
<path fill="none" stroke="#000000" d="M1648.4334,-515.0531C1653.2701,-505.2422 1659.4464,-492.7143 1664.9018,-481.6483"/>
<polygon fill="#000000" stroke="#000000" points="1668.1761,-482.9219 1669.4587,-472.405 1661.8976,-479.8266 1668.1761,-482.9219"/>
</g>
<!-- ks -->
<g id="node19" class="node">
<title>ks</title>
<ellipse fill="none" stroke="#000000" cx="1697" cy="-306" rx="27" ry="18"/>
<text text-anchor="middle" x="1697" y="-301.8" font-family="Times,serif" font-size="14.00" fill="#000000">ks</text>
</g>
<!-- xk -->
<g id="node20" class="node">
<title>xk</title>
<ellipse fill="none" stroke="#000000" cx="1754" cy="-234" rx="27" ry="18"/>
<text text-anchor="middle" x="1754" y="-229.8" font-family="Times,serif" font-size="14.00" fill="#000000">xk</text>
</g>
<!-- ks&#45;&gt;xk -->
<g id="edge16" class="edge">
<title>ks-&gt;xk</title>
<path fill="none" stroke="#000000" d="M1709.6501,-290.0209C1717.1035,-280.6061 1726.6775,-268.5126 1735.0214,-257.973"/>
<polygon fill="#000000" stroke="#000000" points="1737.9223,-259.9474 1741.3852,-249.9345 1732.434,-255.6025 1737.9223,-259.9474"/>
</g>
<!-- ks&#45;&gt;kd -->
<g id="edge17" class="edge">
<title>ks-&gt;kd</title>
<path fill="none" stroke="#000000" d="M1677.7465,-318.9005C1645.7241,-342.0725 1585,-394.0582 1585,-455.0798 1585,-532.1596 1585,-532.1596 1585,-532.1596 1585,-574.1698 1602.0108,-620.3003 1614.6339,-648.7488"/>
<polygon fill="#000000" stroke="#000000" points="1611.5398,-650.3988 1618.8808,-658.0382 1617.906,-647.4883 1611.5398,-650.3988"/>
</g>
<!-- xk&#45;&gt;kd -->
<g id="edge36" class="edge">
<title>xk-&gt;kd</title>
<path fill="none" stroke="#000000" d="M1757.5224,-252.1045C1762.5018,-279.3176 1771,-332.4358 1771,-378 1771,-532.1596 1771,-532.1596 1771,-532.1596 1771,-592.7204 1706.5318,-636.8748 1664.1679,-659.3521"/>
<polygon fill="#000000" stroke="#000000" points="1662.5253,-656.261 1655.2338,-663.9477 1665.7273,-662.4858 1662.5253,-656.261"/>
</g>
<!-- nv -->
<g id="node35" class="node">
<title>nv</title>
<ellipse fill="none" stroke="#000000" cx="1773" cy="-162" rx="27" ry="18"/>
<text text-anchor="middle" x="1773" y="-157.8" font-family="Times,serif" font-size="14.00" fill="#000000">nv</text>
</g>
<!-- xk&#45;&gt;nv -->
<g id="edge37" class="edge">
<title>xk-&gt;nv</title>
<path fill="none" stroke="#000000" d="M1758.6966,-216.2022C1760.7976,-208.2406 1763.324,-198.6671 1765.665,-189.7957"/>
<polygon fill="#000000" stroke="#000000" points="1769.1241,-190.4046 1768.2916,-179.8425 1762.3558,-188.6185 1769.1241,-190.4046"/>
</g>
<!-- kd&#45;&gt;qm -->
<g id="edge104" class="edge">
<title>kd-&gt;qm</title>
<path fill="none" stroke="#000000" d="M1629.2624,-694.3851C1627.1056,-732.274 1614.3901,-819.7378 1604.7759,-864.5703"/>
<polygon fill="#000000" stroke="#000000" points="1601.3262,-863.9572 1602.5305,-874.4834 1608.1533,-865.5037 1601.3262,-863.9572"/>
</g>
<!-- kd&#45;&gt;rn -->
<g id="edge105" class="edge">
<title>kd-&gt;rn</title>
<path fill="none" stroke="#000000" d="M1600.8052,-661.7623C1578.0857,-649.7344 1545.7225,-632.6009 1522.2018,-620.1487"/>
<polygon fill="#000000" stroke="#000000" points="1523.8213,-617.0459 1513.3458,-615.4603 1520.5461,-623.2325 1523.8213,-617.0459"/>
</g>
<!-- kd&#45;&gt;ml -->
<g id="edge106" class="edge">
<title>kd-&gt;ml</title>
<path fill="none" stroke="#000000" d="M1629.5198,-657.9219C1631.5666,-633.3606 1635.2294,-589.407 1637.6372,-560.5136"/>
<polygon fill="#000000" stroke="#000000" points="1641.1499,-560.5053 1638.4925,-550.2492 1634.1741,-559.9239 1641.1499,-560.5053"/>
</g>
<!-- qv -->
<g id="node27" class="node">
<title>qv</title>
<ellipse fill="none" stroke="#000000" cx="1697" cy="-378" rx="27" ry="18"/>
<text text-anchor="middle" x="1697" y="-373.8" font-family="Times,serif" font-size="14.00" fill="#000000">qv</text>
</g>
<!-- kd&#45;&gt;qv -->
<g id="edge107" class="edge">
<title>kd-&gt;qv</title>
<path fill="none" stroke="#000000" d="M1646.3641,-658.0827C1655.4989,-648.2046 1666.045,-635.3235 1673,-622.1596 1704.0856,-563.323 1704.8006,-544.0642 1714,-478.1596 1716.8362,-457.8412 1717.1164,-452.2773 1714,-432 1712.6414,-423.1598 1710.1005,-413.7811 1707.3897,-405.3637"/>
<polygon fill="#000000" stroke="#000000" points="1710.6214,-403.9979 1704.0667,-395.674 1704,-406.2687 1710.6214,-403.9979"/>
</g>
<!-- ts -->
<g id="node59" class="node">
<title>ts</title>
<polygon fill="none" stroke="#000000" points="1409,-622.1596 1355,-622.1596 1355,-586.1596 1409,-586.1596 1409,-622.1596"/>
<text text-anchor="middle" x="1382" y="-599.9596" font-family="Times,serif" font-size="14.00" fill="#000000">ts</text>
</g>
<!-- kd&#45;&gt;ts -->
<g id="edge108" class="edge">
<title>kd-&gt;ts</title>
<path fill="none" stroke="#000000" d="M1600.7338,-668.1792C1556.3782,-655.1971 1468.5548,-629.4927 1418.7411,-614.913"/>
<polygon fill="#000000" stroke="#000000" points="1419.594,-611.5159 1409.0134,-612.0659 1417.6276,-618.2341 1419.594,-611.5159"/>
</g>
<!-- pc -->
<g id="node48" class="node">
<title>pc</title>
<ellipse fill="none" stroke="#000000" cx="207" cy="-532.1596" rx="27" ry="18"/>
<text text-anchor="middle" x="207" y="-527.9596" font-family="Times,serif" font-size="14.00" fill="#000000">pc</text>
</g>
<!-- jp&#45;&gt;pc -->
<g id="edge99" class="edge">
<title>jp-&gt;pc</title>
<path fill="none" stroke="#000000" d="M129.8688,-590.6169C144.2406,-579.7246 164.6381,-564.2654 180.8476,-551.9803"/>
<polygon fill="#000000" stroke="#000000" points="183.0327,-554.7159 188.8884,-545.8863 178.8046,-549.1371 183.0327,-554.7159"/>
</g>
<!-- qd -->
<g id="node28" class="node">
<title>qd</title>
<ellipse fill="none" stroke="#000000" cx="112" cy="-676.1596" rx="27" ry="18"/>
<text text-anchor="middle" x="112" y="-671.9596" font-family="Times,serif" font-size="14.00" fill="#000000">qd</text>
</g>
<!-- sk&#45;&gt;qd -->
<g id="edge72" class="edge">
<title>sk-&gt;qd</title>
<path fill="none" stroke="#000000" d="M126.3034,-730.3618C124.2024,-722.4002 121.676,-712.8267 119.335,-703.9552"/>
<polygon fill="#000000" stroke="#000000" points="122.6442,-702.778 116.7084,-694.0021 115.8759,-704.5642 122.6442,-702.778"/>
</g>
<!-- dt&#45;&gt;cl -->
<g id="edge93" class="edge">
<title>dt-&gt;cl</title>
<path fill="none" stroke="#000000" d="M879.8792,-802.1439C893.0936,-753.3525 929.644,-618.3972 945.4999,-559.8522"/>
<polygon fill="#000000" stroke="#000000" points="948.8867,-560.7357 948.1226,-550.1684 942.1301,-558.9057 948.8867,-560.7357"/>
</g>
<!-- rp -->
<g id="node33" class="node">
<title>rp</title>
<ellipse fill="none" stroke="#000000" cx="300" cy="-306" rx="27" ry="18"/>
<text text-anchor="middle" x="300" y="-301.8" font-family="Times,serif" font-size="14.00" fill="#000000">rp</text>
</g>
<!-- gb&#45;&gt;rp -->
<g id="edge63" class="edge">
<title>gb-&gt;rp</title>
<path fill="none" stroke="#000000" d="M241.3328,-363.0816C251.751,-352.945 265.7078,-339.3654 277.3947,-327.9944"/>
<polygon fill="#000000" stroke="#000000" points="279.9603,-330.3815 284.6868,-320.8993 275.0788,-325.3644 279.9603,-330.3815"/>
</g>
<!-- gk&#45;&gt;kd -->
<g id="edge23" class="edge">
<title>gk-&gt;kd</title>
<path fill="none" stroke="#000000" d="M1679.4384,-473.1486C1680.5518,-492.421 1681.1488,-523.7445 1676,-550.1596 1669.1206,-585.4531 1653.2149,-623.7573 1641.592,-648.752"/>
<polygon fill="#000000" stroke="#000000" points="1638.3458,-647.4289 1637.2209,-657.9639 1644.6699,-650.4298 1638.3458,-647.4289"/>
</g>
<!-- gk&#45;&gt;qv -->
<g id="edge24" class="edge">
<title>gk-&gt;qv</title>
<path fill="none" stroke="#000000" d="M1682.4067,-437.2024C1684.7089,-427.8631 1687.5775,-416.2254 1690.1607,-405.7459"/>
<polygon fill="#000000" stroke="#000000" points="1693.622,-406.3275 1692.6172,-395.7804 1686.8255,-404.6521 1693.622,-406.3275"/>
</g>
<!-- qv&#45;&gt;ks -->
<g id="edge38" class="edge">
<title>qv-&gt;ks</title>
<path fill="none" stroke="#000000" d="M1697,-359.8314C1697,-352.131 1697,-342.9743 1697,-334.4166"/>
<polygon fill="#000000" stroke="#000000" points="1700.5001,-334.4132 1697,-324.4133 1693.5001,-334.4133 1700.5001,-334.4132"/>
</g>
<!-- qd&#45;&gt;cm -->
<g id="edge26" class="edge">
<title>qd-&gt;cm</title>
<path fill="none" stroke="#000000" d="M104.9333,-693.8336C101.1611,-704.2249 96.9111,-717.7249 95,-730.1596 82.3692,-812.3437 98.2912,-842.0593 146,-910.1596 167.2915,-940.5514 200.731,-966.6629 226.2478,-983.869"/>
<polygon fill="#000000" stroke="#000000" points="224.6339,-986.997 234.91,-989.576 228.4851,-981.1516 224.6339,-986.997"/>
</g>
<!-- qd&#45;&gt;jp -->
<g id="edge27" class="edge">
<title>qd-&gt;jp</title>
<path fill="none" stroke="#000000" d="M112,-657.9909C112,-650.2905 112,-641.1339 112,-632.5762"/>
<polygon fill="#000000" stroke="#000000" points="115.5001,-632.5728 112,-622.5728 108.5001,-632.5729 115.5001,-632.5728"/>
</g>
<!-- fs&#45;&gt;zz -->
<g id="edge102" class="edge">
<title>fs-&gt;zz</title>
<path fill="none" stroke="#000000" d="M1116.5598,-324.2841C1111.5923,-352.321 1103,-407.6694 1103,-455.0798 1103,-604.1596 1103,-604.1596 1103,-604.1596 1103,-649.5036 1132.8384,-694.5597 1155.1226,-721.8861"/>
<polygon fill="#000000" stroke="#000000" points="1152.6415,-724.374 1161.7544,-729.7782 1158.0006,-719.8706 1152.6415,-724.374"/>
</g>
<!-- lh -->
<g id="node39" class="node">
<title>lh</title>
<ellipse fill="none" stroke="#000000" cx="1101" cy="-234" rx="27" ry="18"/>
<text text-anchor="middle" x="1101" y="-229.8" font-family="Times,serif" font-size="14.00" fill="#000000">lh</text>
</g>
<!-- fs&#45;&gt;lh -->
<g id="edge103" class="edge">
<title>fs-&gt;lh</title>
<path fill="none" stroke="#000000" d="M1115.3034,-288.2022C1113.2024,-280.2406 1110.676,-270.6671 1108.335,-261.7957"/>
<polygon fill="#000000" stroke="#000000" points="1111.6442,-260.6185 1105.7084,-251.8425 1104.8759,-262.4046 1111.6442,-260.6185"/>
</g>
<!-- vq -->
<g id="node30" class="node">
<title>vq</title>
<ellipse fill="none" stroke="#000000" cx="1773" cy="-90" rx="27" ry="18"/>
<text text-anchor="middle" x="1773" y="-85.8" font-family="Times,serif" font-size="14.00" fill="#000000">vq</text>
</g>
<!-- vq&#45;&gt;kd -->
<g id="edge29" class="edge">
<title>vq-&gt;kd</title>
<path fill="none" stroke="#000000" d="M1746.6326,-94.0541C1687.0163,-104.8709 1547,-140.2544 1547,-234 1547,-532.1596 1547,-532.1596 1547,-532.1596 1547,-578.3683 1579.0762,-623.4443 1602.8584,-650.5144"/>
<polygon fill="#000000" stroke="#000000" points="1600.3155,-652.9207 1609.6198,-657.9883 1605.5065,-648.2245 1600.3155,-652.9207"/>
</g>
<!-- qj -->
<g id="node31" class="node">
<title>qj</title>
<ellipse fill="none" stroke="#000000" cx="1810" cy="-18" rx="27" ry="18"/>
<text text-anchor="middle" x="1810" y="-13.8" font-family="Times,serif" font-size="14.00" fill="#000000">qj</text>
</g>
<!-- vq&#45;&gt;qj -->
<g id="edge30" class="edge">
<title>vq-&gt;qj</title>
<path fill="none" stroke="#000000" d="M1781.7685,-72.937C1786.1279,-64.4537 1791.4953,-54.0092 1796.3753,-44.513"/>
<polygon fill="#000000" stroke="#000000" points="1799.5797,-45.9348 1801.0374,-35.4407 1793.3537,-42.7352 1799.5797,-45.9348"/>
</g>
<!-- qj&#45;&gt;kd -->
<g id="edge87" class="edge">
<title>qj-&gt;kd</title>
<path fill="none" stroke="#000000" d="M1817.4875,-35.3645C1828.299,-62.0586 1847,-115.022 1847,-162 1847,-532.1596 1847,-532.1596 1847,-532.1596 1847,-618.1522 1727.6579,-655.6566 1665.1707,-669.4"/>
<polygon fill="#000000" stroke="#000000" points="1664.3585,-665.9942 1655.2937,-671.4786 1665.8002,-672.8441 1664.3585,-665.9942"/>
</g>
<!-- cx&#45;&gt;zz -->
<g id="edge89" class="edge">
<title>cx-&gt;zz</title>
<path fill="none" stroke="#000000" d="M1194.937,-473.4063C1192.0634,-522.9473 1184.1243,-659.8169 1180.6566,-719.599"/>
<polygon fill="#000000" stroke="#000000" points="1177.1485,-719.6402 1180.0634,-729.8261 1184.1367,-720.0456 1177.1485,-719.6402"/>
</g>
<!-- cx&#45;&gt;jk -->
<g id="edge90" class="edge">
<title>cx-&gt;jk</title>
<path fill="none" stroke="#000000" d="M1187.5666,-437.9733C1182.7299,-428.1624 1176.5536,-415.6345 1171.0982,-404.5685"/>
<polygon fill="#000000" stroke="#000000" points="1174.1024,-402.7468 1166.5413,-395.3252 1167.8239,-405.8421 1174.1024,-402.7468"/>
</g>
<!-- rp&#45;&gt;cm -->
<g id="edge34" class="edge">
<title>rp-&gt;cm</title>
<path fill="none" stroke="#000000" d="M300,-324.3606C300,-352.4975 300,-407.9747 300,-455.0798 300,-820.1596 300,-820.1596 300,-820.1596 300,-877.0189 282.6603,-941.7231 271.407,-977.7281"/>
<polygon fill="#000000" stroke="#000000" points="267.9891,-976.9255 268.2749,-987.5165 274.6561,-979.0588 267.9891,-976.9255"/>
</g>
<!-- bk -->
<g id="node34" class="node">
<title>bk</title>
<ellipse fill="none" stroke="#000000" cx="410" cy="-234" rx="27" ry="18"/>
<text text-anchor="middle" x="410" y="-229.8" font-family="Times,serif" font-size="14.00" fill="#000000">bk</text>
</g>
<!-- rp&#45;&gt;bk -->
<g id="edge35" class="edge">
<title>rp-&gt;bk</title>
<path fill="none" stroke="#000000" d="M319.4126,-293.2936C336.742,-281.9507 362.3318,-265.201 381.8972,-252.3946"/>
<polygon fill="#000000" stroke="#000000" points="383.9613,-255.2267 390.4115,-246.8216 380.1276,-249.3698 383.9613,-255.2267"/>
</g>
<!-- bk&#45;&gt;bd -->
<g id="edge75" class="edge">
<title>bk-&gt;bd</title>
<path fill="none" stroke="#000000" d="M417.6899,-251.3446C428.7936,-278.0126 448,-330.9424 448,-378 448,-1005.6972 448,-1005.6972 448,-1005.6972 448,-1077.365 381.9673,-1140.7912 343.6652,-1171.5531"/>
<polygon fill="#000000" stroke="#000000" points="341.2015,-1169.0373 335.4913,-1177.9617 345.5204,-1174.5461 341.2015,-1169.0373"/>
</g>
<!-- bk&#45;&gt;cm -->
<g id="edge76" class="edge">
<title>bk-&gt;cm</title>
<path fill="none" stroke="#000000" d="M410,-252.1854C410,-279.5017 410,-332.75 410,-378 410,-820.1596 410,-820.1596 410,-820.1596 410,-861.0412 413.085,-875.7566 391,-910.1596 368.3808,-945.3946 327.8803,-972.1778 298.2773,-988.2938"/>
<polygon fill="#000000" stroke="#000000" points="296.2932,-985.3835 289.0854,-993.1486 299.5624,-991.5732 296.2932,-985.3835"/>
</g>
<!-- nv&#45;&gt;kd -->
<g id="edge80" class="edge">
<title>nv-&gt;kd</title>
<path fill="none" stroke="#000000" d="M1780.2851,-179.384C1790.8044,-206.1035 1809,-259.0997 1809,-306 1809,-532.1596 1809,-532.1596 1809,-532.1596 1809,-605.1554 1717.7336,-647.0931 1664.8164,-665.2741"/>
<polygon fill="#000000" stroke="#000000" points="1663.4886,-662.0268 1655.0975,-668.4952 1665.6909,-668.6714 1663.4886,-662.0268"/>
</g>
<!-- nv&#45;&gt;vq -->
<g id="edge81" class="edge">
<title>nv-&gt;vq</title>
<path fill="none" stroke="#000000" d="M1773,-143.8314C1773,-136.131 1773,-126.9743 1773,-118.4166"/>
<polygon fill="#000000" stroke="#000000" points="1776.5001,-118.4132 1773,-108.4133 1769.5001,-118.4133 1776.5001,-118.4132"/>
</g>
<!-- xg -->
<g id="node37" class="node">
<title>xg</title>
<ellipse fill="none" stroke="#000000" cx="612" cy="-748.1596" rx="27" ry="18"/>
<text text-anchor="middle" x="612" y="-743.9596" font-family="Times,serif" font-size="14.00" fill="#000000">xg</text>
</g>
<!-- mj&#45;&gt;xg -->
<g id="edge39" class="edge">
<title>mj-&gt;xg</title>
<path fill="none" stroke="#000000" d="M640.9945,-803.0966C636.5172,-794.6133 631.0048,-784.1687 625.993,-774.6725"/>
<polygon fill="#000000" stroke="#000000" points="628.9678,-772.8104 621.2048,-765.6002 622.7771,-776.0778 628.9678,-772.8104"/>
</g>
<!-- mj&#45;&gt;mh -->
<g id="edge40" class="edge">
<title>mj-&gt;mh</title>
<path fill="none" stroke="#000000" d="M655.1098,-802.213C662.1071,-777.6369 674.7421,-733.2603 683,-704.257"/>
<polygon fill="#000000" stroke="#000000" points="686.4536,-704.9085 685.8258,-694.3323 679.7211,-702.9916 686.4536,-704.9085"/>
</g>
<!-- xg&#45;&gt;mh -->
<g id="edge82" class="edge">
<title>xg-&gt;mh</title>
<path fill="none" stroke="#000000" d="M627.9868,-733.5893C638.1946,-724.286 651.6962,-711.9807 663.5826,-701.1475"/>
<polygon fill="#000000" stroke="#000000" points="666.0763,-703.6104 671.1096,-694.2875 661.361,-698.4368 666.0763,-703.6104"/>
</g>
<!-- vs -->
<g id="node42" class="node">
<title>vs</title>
<ellipse fill="none" stroke="#000000" cx="541" cy="-604.1596" rx="27" ry="18"/>
<text text-anchor="middle" x="541" y="-599.9596" font-family="Times,serif" font-size="14.00" fill="#000000">vs</text>
</g>
<!-- xg&#45;&gt;vs -->
<g id="edge83" class="edge">
<title>xg-&gt;vs</title>
<path fill="none" stroke="#000000" d="M603.4357,-730.7898C591.1752,-705.9233 568.5161,-659.9668 554.1295,-630.7883"/>
<polygon fill="#000000" stroke="#000000" points="557.1561,-629.0122 549.5946,-621.5909 550.8778,-632.1078 557.1561,-629.0122"/>
</g>
<!-- mh&#45;&gt;ct -->
<g id="edge43" class="edge">
<title>mh-&gt;ct</title>
<path fill="none" stroke="#000000" d="M696.8872,-694.3046C704.3417,-731.9541 713.849,-818.8004 715.7223,-863.8698"/>
<polygon fill="#000000" stroke="#000000" points="712.2311,-864.2226 716.0245,-874.115 719.228,-864.0161 712.2311,-864.2226"/>
</g>
<!-- qs -->
<g id="node41" class="node">
<title>qs</title>
<polygon fill="none" stroke="#000000" points="906,-622.1596 852,-622.1596 852,-586.1596 906,-586.1596 906,-622.1596"/>
<text text-anchor="middle" x="879" y="-599.9596" font-family="Times,serif" font-size="14.00" fill="#000000">qs</text>
</g>
<!-- mh&#45;&gt;qs -->
<g id="edge44" class="edge">
<title>mh-&gt;qs</title>
<path fill="none" stroke="#000000" d="M718.0139,-666.7988C747.6463,-656.4004 796.5134,-638.8679 838,-622.1596 839.3971,-621.5969 840.8176,-621.0163 842.2499,-620.4237"/>
<polygon fill="#000000" stroke="#000000" points="843.9075,-623.5227 851.7522,-616.4015 841.1789,-617.0764 843.9075,-623.5227"/>
</g>
<!-- mh&#45;&gt;vs -->
<g id="edge45" class="edge">
<title>mh-&gt;vs</title>
<path fill="none" stroke="#000000" d="M663.8361,-663.1209C638.0079,-650.7233 599.1893,-632.0904 572.1258,-619.0999"/>
<polygon fill="#000000" stroke="#000000" points="573.6137,-615.9319 563.0839,-614.7598 570.5846,-622.2425 573.6137,-615.9319"/>
</g>
<!-- vk -->
<g id="node43" class="node">
<title>vk</title>
<ellipse fill="none" stroke="#000000" cx="693" cy="-306" rx="27" ry="18"/>
<text text-anchor="middle" x="693" y="-301.8" font-family="Times,serif" font-size="14.00" fill="#000000">vk</text>
</g>
<!-- mh&#45;&gt;vk -->
<g id="edge46" class="edge">
<title>mh-&gt;vk</title>
<path fill="none" stroke="#000000" d="M694.9368,-658.0752C700.502,-630.8876 710,-577.8017 710,-532.1596 710,-532.1596 710,-532.1596 710,-455.0798 710,-412.8549 703.1844,-364.3335 698.1843,-334.4178"/>
<polygon fill="#000000" stroke="#000000" points="701.5857,-333.5455 696.4402,-324.2841 694.6871,-334.7329 701.5857,-333.5455"/>
</g>
<!-- pg -->
<g id="node44" class="node">
<title>pg</title>
<ellipse fill="none" stroke="#000000" cx="579" cy="-532.1596" rx="27" ry="18"/>
<text text-anchor="middle" x="579" y="-527.9596" font-family="Times,serif" font-size="14.00" fill="#000000">pg</text>
</g>
<!-- mh&#45;&gt;pg -->
<g id="edge47" class="edge">
<title>mh-&gt;pg</title>
<path fill="none" stroke="#000000" d="M663.7434,-660.0921C649.2928,-650.5135 632.0819,-637.2844 620,-622.1596 605.1027,-603.5103 594.2946,-578.5759 587.5276,-559.6817"/>
<polygon fill="#000000" stroke="#000000" points="590.8164,-558.482 584.2703,-550.1514 584.1926,-560.746 590.8164,-558.482"/>
</g>
<!-- lh&#45;&gt;zz -->
<g id="edge41" class="edge">
<title>lh-&gt;zz</title>
<path fill="none" stroke="#000000" d="M1093.7149,-251.384C1083.1956,-278.1035 1065,-331.0997 1065,-378 1065,-604.1596 1065,-604.1596 1065,-604.1596 1065,-655.6005 1110.2736,-699.3942 1143.7591,-724.75"/>
<polygon fill="#000000" stroke="#000000" points="1141.8525,-727.6923 1151.9836,-730.7926 1145.9971,-722.0511 1141.8525,-727.6923"/>
</g>
<!-- pz -->
<g id="node40" class="node">
<title>pz</title>
<ellipse fill="none" stroke="#000000" cx="1101" cy="-162" rx="27" ry="18"/>
<text text-anchor="middle" x="1101" y="-157.8" font-family="Times,serif" font-size="14.00" fill="#000000">pz</text>
</g>
<!-- lh&#45;&gt;pz -->
<g id="edge42" class="edge">
<title>lh-&gt;pz</title>
<path fill="none" stroke="#000000" d="M1101,-215.8314C1101,-208.131 1101,-198.9743 1101,-190.4166"/>
<polygon fill="#000000" stroke="#000000" points="1104.5001,-190.4132 1101,-180.4133 1097.5001,-190.4133 1104.5001,-190.4132"/>
</g>
<!-- pz&#45;&gt;zz -->
<g id="edge64" class="edge">
<title>pz-&gt;zz</title>
<path fill="none" stroke="#000000" d="M1086.7321,-177.4916C1065.2285,-202.5178 1027,-254.2816 1027,-306 1027,-604.1596 1027,-604.1596 1027,-604.1596 1027,-649.9179 1044.3188,-662.1319 1077,-694.1596 1095.4908,-712.2806 1121.3007,-725.8658 1142.3307,-734.8775"/>
<polygon fill="#000000" stroke="#000000" points="1141.0337,-738.1285 1151.6133,-738.6961 1143.6968,-731.6549 1141.0337,-738.1285"/>
</g>
<!-- mf -->
<g id="node54" class="node">
<title>mf</title>
<ellipse fill="none" stroke="#000000" cx="1327" cy="-90" rx="27" ry="18"/>
<text text-anchor="middle" x="1327" y="-85.8" font-family="Times,serif" font-size="14.00" fill="#000000">mf</text>
</g>
<!-- pz&#45;&gt;mf -->
<g id="edge65" class="edge">
<title>pz-&gt;mf</title>
<path fill="none" stroke="#000000" d="M1125.6162,-154.1577C1166.1175,-141.2546 1246.8921,-115.5211 1292.8821,-100.8694"/>
<polygon fill="#000000" stroke="#000000" points="1293.9485,-104.2031 1302.4142,-97.8327 1291.8236,-97.5334 1293.9485,-104.2031"/>
</g>
<!-- qs&#45;&gt;cl -->
<g id="edge88" class="edge">
<title>qs-&gt;cl</title>
<path fill="none" stroke="#000000" d="M897.6733,-585.9909C906.5249,-577.3786 917.2486,-566.9447 926.8895,-557.5644"/>
<polygon fill="#000000" stroke="#000000" points="929.6061,-559.8045 934.3326,-550.3224 924.7246,-554.7874 929.6061,-559.8045"/>
</g>
<!-- vs&#45;&gt;pg -->
<g id="edge96" class="edge">
<title>vs-&gt;pg</title>
<path fill="none" stroke="#000000" d="M550.0055,-587.0966C554.4828,-578.6133 559.9952,-568.1687 565.007,-558.6725"/>
<polygon fill="#000000" stroke="#000000" points="568.2229,-560.0778 569.7952,-549.6002 562.0322,-556.8104 568.2229,-560.0778"/>
</g>
<!-- jg -->
<g id="node58" class="node">
<title>jg</title>
<ellipse fill="none" stroke="#000000" cx="731" cy="-234" rx="27" ry="18"/>
<text text-anchor="middle" x="731" y="-229.8" font-family="Times,serif" font-size="14.00" fill="#000000">jg</text>
</g>
<!-- vk&#45;&gt;jg -->
<g id="edge86" class="edge">
<title>vk-&gt;jg</title>
<path fill="none" stroke="#000000" d="M702.0055,-288.937C706.4828,-280.4537 711.9952,-270.0092 717.007,-260.513"/>
<polygon fill="#000000" stroke="#000000" points="720.2229,-261.9182 721.7952,-251.4407 714.0322,-258.6509 720.2229,-261.9182"/>
</g>
<!-- lz -->
<g id="node47" class="node">
<title>lz</title>
<ellipse fill="none" stroke="#000000" cx="617" cy="-455.0798" rx="27" ry="18"/>
<text text-anchor="middle" x="617" y="-450.8798" font-family="Times,serif" font-size="14.00" fill="#000000">lz</text>
</g>
<!-- pg&#45;&gt;lz -->
<g id="edge50" class="edge">
<title>pg-&gt;lz</title>
<path fill="none" stroke="#000000" d="M587.4334,-515.0531C592.2701,-505.2422 598.4464,-492.7143 603.9018,-481.6483"/>
<polygon fill="#000000" stroke="#000000" points="607.1761,-482.9219 608.4587,-472.405 600.8976,-479.8266 607.1761,-482.9219"/>
</g>
<!-- kb&#45;&gt;kd -->
<g id="edge48" class="edge">
<title>kb-&gt;kd</title>
<path fill="none" stroke="#000000" d="M1571.7199,-802.7898C1582.6522,-778.1922 1602.7563,-732.958 1615.7418,-703.7405"/>
<polygon fill="#000000" stroke="#000000" points="1618.9861,-705.0585 1619.8492,-694.4989 1612.5894,-702.2155 1618.9861,-705.0585"/>
</g>
<!-- hv -->
<g id="node46" class="node">
<title>hv</title>
<ellipse fill="none" stroke="#000000" cx="1526" cy="-748.1596" rx="27" ry="18"/>
<text text-anchor="middle" x="1526" y="-743.9596" font-family="Times,serif" font-size="14.00" fill="#000000">hv</text>
</g>
<!-- kb&#45;&gt;hv -->
<g id="edge49" class="edge">
<title>kb-&gt;hv</title>
<path fill="none" stroke="#000000" d="M1554.9945,-803.0966C1550.5172,-794.6133 1545.0048,-784.1687 1539.993,-774.6725"/>
<polygon fill="#000000" stroke="#000000" points="1542.9678,-772.8104 1535.2048,-765.6002 1536.7771,-776.0778 1542.9678,-772.8104"/>
</g>
<!-- hv&#45;&gt;rn -->
<g id="edge55" class="edge">
<title>hv-&gt;rn</title>
<path fill="none" stroke="#000000" d="M1521.7626,-730.213C1515.9599,-705.6369 1505.4821,-661.2603 1498.6341,-632.257"/>
<polygon fill="#000000" stroke="#000000" points="1501.9951,-631.2604 1496.2908,-622.3323 1495.1824,-632.869 1501.9951,-631.2604"/>
</g>
<!-- hv&#45;&gt;kd -->
<g id="edge56" class="edge">
<title>hv-&gt;kd</title>
<path fill="none" stroke="#000000" d="M1544.7084,-734.9536C1558.5195,-725.2046 1577.698,-711.6669 1594.1707,-700.0391"/>
<polygon fill="#000000" stroke="#000000" points="1596.3442,-702.789 1602.4955,-694.1628 1592.3074,-697.0702 1596.3442,-702.789"/>
</g>
<!-- lz&#45;&gt;mh -->
<g id="edge94" class="edge">
<title>lz-&gt;mh</title>
<path fill="none" stroke="#000000" d="M619.5725,-473.2108C624.4207,-504.5145 636.4138,-570.3237 658,-622.1596 661.8463,-631.3957 667.1317,-640.8938 672.3459,-649.2987"/>
<polygon fill="#000000" stroke="#000000" points="669.5459,-651.4151 677.9043,-657.9258 675.4303,-647.6238 669.5459,-651.4151"/>
</g>
<!-- tk -->
<g id="node57" class="node">
<title>tk</title>
<ellipse fill="none" stroke="#000000" cx="655" cy="-378" rx="27" ry="18"/>
<text text-anchor="middle" x="655" y="-373.8" font-family="Times,serif" font-size="14.00" fill="#000000">tk</text>
</g>
<!-- lz&#45;&gt;tk -->
<g id="edge95" class="edge">
<title>lz-&gt;tk</title>
<path fill="none" stroke="#000000" d="M625.4334,-437.9733C630.2701,-428.1624 636.4464,-415.6345 641.9018,-404.5685"/>
<polygon fill="#000000" stroke="#000000" points="645.1761,-405.8421 646.4587,-395.3252 638.8976,-402.7468 645.1761,-405.8421"/>
</g>
<!-- pc&#45;&gt;cm -->
<g id="edge53" class="edge">
<title>pc-&gt;cm</title>
<path fill="none" stroke="#000000" d="M210.5224,-550.264C215.5018,-577.4771 224,-630.5953 224,-676.1596 224,-820.1596 224,-820.1596 224,-820.1596 224,-877.0189 241.3397,-941.7231 252.593,-977.7281"/>
<polygon fill="#000000" stroke="#000000" points="249.3439,-979.0588 255.7251,-987.5165 256.0109,-976.9255 249.3439,-979.0588"/>
</g>
<!-- xl -->
<g id="node49" class="node">
<title>xl</title>
<ellipse fill="none" stroke="#000000" cx="226" cy="-455.0798" rx="27" ry="18"/>
<text text-anchor="middle" x="226" y="-450.8798" font-family="Times,serif" font-size="14.00" fill="#000000">xl</text>
</g>
<!-- pc&#45;&gt;xl -->
<g id="edge54" class="edge">
<title>pc-&gt;xl</title>
<path fill="none" stroke="#000000" d="M211.4067,-514.2822C213.7089,-504.9428 216.5775,-493.3052 219.1607,-482.8257"/>
<polygon fill="#000000" stroke="#000000" points="222.622,-483.4073 221.6172,-472.8602 215.8255,-481.7319 222.622,-483.4073"/>
</g>
<!-- xl&#45;&gt;cm -->
<g id="edge60" class="edge">
<title>xl-&gt;cm</title>
<path fill="none" stroke="#000000" d="M233.1124,-472.647C243.6039,-500.1909 262,-555.4343 262,-604.1596 262,-820.1596 262,-820.1596 262,-820.1596 262,-875.7695 262,-940.755 262,-977.1801"/>
<polygon fill="#000000" stroke="#000000" points="258.5001,-977.5255 262,-987.5256 265.5001,-977.5256 258.5001,-977.5255"/>
</g>
<!-- xl&#45;&gt;gb -->
<g id="edge61" class="edge">
<title>xl-&gt;gb</title>
<path fill="none" stroke="#000000" d="M226,-436.8129C226,-427.6936 226,-416.4572 226,-406.2574"/>
<polygon fill="#000000" stroke="#000000" points="229.5001,-406.1357 226,-396.1357 222.5001,-406.1357 229.5001,-406.1357"/>
</g>
<!-- fr -->
<g id="node50" class="node">
<title>fr</title>
<ellipse fill="none" stroke="#000000" cx="750" cy="-162" rx="27" ry="18"/>
<text text-anchor="middle" x="750" y="-157.8" font-family="Times,serif" font-size="14.00" fill="#000000">fr</text>
</g>
<!-- fr&#45;&gt;mh -->
<g id="edge57" class="edge">
<title>fr-&gt;mh</title>
<path fill="none" stroke="#000000" d="M757.2851,-179.384C767.8044,-206.1035 786,-259.0997 786,-306 786,-532.1596 786,-532.1596 786,-532.1596 786,-580.0683 748.9087,-624.3283 721.079,-650.7941"/>
<polygon fill="#000000" stroke="#000000" points="718.4892,-648.4214 713.5137,-657.7752 723.2364,-653.5658 718.4892,-648.4214"/>
</g>
<!-- fl -->
<g id="node51" class="node">
<title>fl</title>
<ellipse fill="none" stroke="#000000" cx="750" cy="-90" rx="27" ry="18"/>
<text text-anchor="middle" x="750" y="-85.8" font-family="Times,serif" font-size="14.00" fill="#000000">fl</text>
</g>
<!-- fr&#45;&gt;fl -->
<g id="edge58" class="edge">
<title>fr-&gt;fl</title>
<path fill="none" stroke="#000000" d="M750,-143.8314C750,-136.131 750,-126.9743 750,-118.4166"/>
<polygon fill="#000000" stroke="#000000" points="753.5001,-118.4132 750,-108.4133 746.5001,-118.4133 753.5001,-118.4132"/>
</g>
<!-- fl&#45;&gt;mh -->
<g id="edge68" class="edge">
<title>fl-&gt;mh</title>
<path fill="none" stroke="#000000" d="M722.7417,-92.1251C655.2902,-99.0164 486,-126.9732 486,-234 486,-532.1596 486,-532.1596 486,-532.1596 486,-573.0412 477.1889,-592.1954 505,-622.1596 525.1387,-643.8574 605.5682,-661.2538 653.8235,-670.001"/>
<polygon fill="#000000" stroke="#000000" points="653.4322,-673.4861 663.8896,-671.785 654.6539,-666.5935 653.4322,-673.4861"/>
</g>
<!-- tp -->
<g id="node53" class="node">
<title>tp</title>
<ellipse fill="none" stroke="#000000" cx="797" cy="-18" rx="27" ry="18"/>
<text text-anchor="middle" x="797" y="-13.8" font-family="Times,serif" font-size="14.00" fill="#000000">tp</text>
</g>
<!-- fl&#45;&gt;tp -->
<g id="edge69" class="edge">
<title>fl-&gt;tp</title>
<path fill="none" stroke="#000000" d="M760.9009,-73.3008C766.7736,-64.3043 774.1366,-53.0247 780.6787,-43.0029"/>
<polygon fill="#000000" stroke="#000000" points="783.6228,-44.8957 786.1582,-34.6087 777.7611,-41.0693 783.6228,-44.8957"/>
</g>
<!-- mp -->
<g id="node52" class="node">
<title>mp</title>
<ellipse fill="none" stroke="#000000" cx="1382" cy="-18" rx="27" ry="18"/>
<text text-anchor="middle" x="1382" y="-13.8" font-family="Times,serif" font-size="14.00" fill="#000000">mp</text>
</g>
<!-- mp&#45;&gt;zz -->
<g id="edge59" class="edge">
<title>mp-&gt;zz</title>
<path fill="none" stroke="#000000" d="M1392.8662,-34.5031C1408.8949,-60.4856 1437,-113.0265 1437,-162 1437,-604.1596 1437,-604.1596 1437,-604.1596 1437,-646.4659 1437.3469,-665.7483 1406,-694.1596 1378.379,-719.1938 1273.1471,-736.1427 1216.1732,-743.6926"/>
<polygon fill="#000000" stroke="#000000" points="1215.5942,-740.2383 1206.1261,-744.9928 1216.4926,-747.1804 1215.5942,-740.2383"/>
</g>
<!-- tp&#45;&gt;mh -->
<g id="edge62" class="edge">
<title>tp-&gt;mh</title>
<path fill="none" stroke="#000000" d="M802.5944,-35.9823C810.5029,-63.0397 824,-115.9615 824,-162 824,-532.1596 824,-532.1596 824,-532.1596 824,-589.3429 766.7017,-633.4973 727.3222,-657.0908"/>
<polygon fill="#000000" stroke="#000000" points="725.1273,-654.3179 718.2355,-662.3648 728.6412,-660.372 725.1273,-654.3179"/>
</g>
<!-- mf&#45;&gt;zz -->
<g id="edge91" class="edge">
<title>mf-&gt;zz</title>
<path fill="none" stroke="#000000" d="M1327,-108.1854C1327,-135.5017 1327,-188.75 1327,-234 1327,-532.1596 1327,-532.1596 1327,-532.1596 1327,-611.132 1310.3831,-638.8641 1254,-694.1596 1242.1599,-705.7713 1227.6547,-716.8092 1214.5666,-725.8439"/>
<polygon fill="#000000" stroke="#000000" points="1212.5466,-722.9845 1206.2127,-731.4776 1216.4605,-728.7881 1212.5466,-722.9845"/>
</g>
<!-- mf&#45;&gt;mp -->
<g id="edge92" class="edge">
<title>mf-&gt;mp</title>
<path fill="none" stroke="#000000" d="M1339.4804,-73.6621C1346.5124,-64.4564 1355.4347,-52.7764 1363.2883,-42.4953"/>
<polygon fill="#000000" stroke="#000000" points="1366.28,-44.3446 1369.569,-34.2733 1360.7172,-40.0953 1366.28,-44.3446"/>
</g>
<!-- qn&#45;&gt;cm -->
<g id="edge66" class="edge">
<title>qn-&gt;cm</title>
<path fill="none" stroke="#000000" d="M176.4996,-837.5851C184.4589,-855.8422 197.5778,-885.2722 210,-910.1596 221.6877,-933.5754 235.9603,-959.6373 246.5939,-978.618"/>
<polygon fill="#000000" stroke="#000000" points="243.6863,-980.5879 251.6419,-987.5851 249.7862,-977.154 243.6863,-980.5879"/>
</g>
<!-- qn&#45;&gt;sk -->
<g id="edge67" class="edge">
<title>qn-&gt;sk</title>
<path fill="none" stroke="#000000" d="M159.9945,-803.0966C155.5172,-794.6133 150.0048,-784.1687 144.993,-774.6725"/>
<polygon fill="#000000" stroke="#000000" points="147.9678,-772.8104 140.2048,-765.6002 141.7771,-776.0778 147.9678,-772.8104"/>
</g>
<!-- zq&#45;&gt;zz -->
<g id="edge70" class="edge">
<title>zq-&gt;zz</title>
<path fill="none" stroke="#000000" d="M1229.113,-804.5366C1221.1445,-795.5721 1210.9417,-784.0939 1201.8244,-773.837"/>
<polygon fill="#000000" stroke="#000000" points="1204.3785,-771.4422 1195.1189,-766.2933 1199.1466,-776.0927 1204.3785,-771.4422"/>
</g>
<!-- zq&#45;&gt;th -->
<g id="edge71" class="edge">
<title>zq-&gt;th</title>
<path fill="none" stroke="#000000" d="M1256.833,-804.4749C1279.1631,-779.1557 1323.2788,-729.1347 1349.3441,-699.5804"/>
<polygon fill="#000000" stroke="#000000" points="1352.1945,-701.6399 1356.1841,-691.8249 1346.9446,-697.0097 1352.1945,-701.6399"/>
</g>
<!-- tk&#45;&gt;mh -->
<g id="edge73" class="edge">
<title>tk-&gt;mh</title>
<path fill="none" stroke="#000000" d="M657.169,-395.9642C663.2115,-446.0094 680.2717,-587.3053 687.5933,-647.9442"/>
<polygon fill="#000000" stroke="#000000" points="684.1287,-648.4488 688.8022,-657.9572 691.0782,-647.6097 684.1287,-648.4488"/>
</g>
<!-- tk&#45;&gt;vk -->
<g id="edge74" class="edge">
<title>tk-&gt;vk</title>
<path fill="none" stroke="#000000" d="M664.0055,-360.937C668.4828,-352.4537 673.9952,-342.0092 679.007,-332.513"/>
<polygon fill="#000000" stroke="#000000" points="682.2229,-333.9182 683.7952,-323.4407 676.0322,-330.6509 682.2229,-333.9182"/>
</g>
<!-- jg&#45;&gt;mh -->
<g id="edge78" class="edge">
<title>jg-&gt;mh</title>
<path fill="none" stroke="#000000" d="M734.5224,-252.1045C739.5018,-279.3176 748,-332.4358 748,-378 748,-532.1596 748,-532.1596 748,-532.1596 748,-575.3998 725.5055,-621.1409 708.7788,-649.1764"/>
<polygon fill="#000000" stroke="#000000" points="705.6244,-647.6243 703.3682,-657.9761 711.5874,-651.2907 705.6244,-647.6243"/>
</g>
<!-- jg&#45;&gt;fr -->
<g id="edge79" class="edge">
<title>jg-&gt;fr</title>
<path fill="none" stroke="#000000" d="M735.6966,-216.2022C737.7976,-208.2406 740.324,-198.6671 742.665,-189.7957"/>
<polygon fill="#000000" stroke="#000000" points="746.1241,-190.4046 745.2916,-179.8425 739.3558,-188.6185 746.1241,-190.4046"/>
</g>
<!-- ts&#45;&gt;cl -->
<g id="edge109" class="edge">
<title>ts-&gt;cl</title>
<path fill="none" stroke="#000000" d="M1354.7153,-596.917C1340.7988,-593.3775 1323.5662,-589.2305 1308,-586.1596 1192.9957,-563.4711 1055.4134,-544.9795 990.4641,-536.7598"/>
<polygon fill="#000000" stroke="#000000" points="990.667,-533.2578 980.3086,-535.4835 989.7941,-540.2032 990.667,-533.2578"/>
</g>
</g>
</svg>